<?xml version="1.0" encoding="UTF-8" standalone="no"?>
<!-- Created with Inkscape (http://www.inkscape.org/) -->

<svg
   xmlns:dc="http://purl.org/dc/elements/1.1/"
   xmlns:cc="http://creativecommons.org/ns#"
   xmlns:rdf="http://www.w3.org/1999/02/22-rdf-syntax-ns#"
   xmlns:svg="http://www.w3.org/2000/svg"
   xmlns="http://www.w3.org/2000/svg"
   xmlns:xlink="http://www.w3.org/1999/xlink"
   xmlns:sodipodi="http://sodipodi.sourceforge.net/DTD/sodipodi-0.dtd"
   xmlns:inkscape="http://www.inkscape.org/namespaces/inkscape"
   width="128"
   height="128"
   id="svg3049"
   version="1.1"
   inkscape:version="0.48.0 r9654"
   sodipodi:docname="accessories-camera.svg">
  <defs
     id="defs3051">
    <linearGradient
       y2="54.780239"
       x2="167.98311"
       y1="8.50811"
       x1="167.98311"
       gradientTransform="matrix(1.832495,0,0,1.8439152,-232.17581,-55.441403)"
       gradientUnits="userSpaceOnUse"
       id="linearGradient5228"
       xlink:href="#linearGradient5803"
       inkscape:collect="always" />
    <linearGradient
       id="linearGradient5803">
      <stop
         style="stop-color:#fff5ef;stop-opacity:1;"
         offset="0"
         id="stop5805" />
      <stop
         style="stop-color:#fef8dd;stop-opacity:1;"
         offset="1"
         id="stop5807" />
    </linearGradient>
    <linearGradient
       inkscape:collect="always"
       xlink:href="#linearGradient3924"
       id="linearGradient4136"
       gradientUnits="userSpaceOnUse"
       gradientTransform="matrix(2.7297298,0,0,2.7297298,-1.5135175,-65.511681)"
       x1="23.99999"
       y1="4.999989"
       x2="23.99999"
       y2="43" />
    <linearGradient
       id="linearGradient3924">
      <stop
         offset="0"
         style="stop-color:#ffffff;stop-opacity:1"
         id="stop3926" />
      <stop
         offset="0.06316455"
         style="stop-color:#ffffff;stop-opacity:0.23529412"
         id="stop3928" />
      <stop
         offset="0.95056331"
         style="stop-color:#ffffff;stop-opacity:0.15686275"
         id="stop3930" />
      <stop
         offset="1"
         style="stop-color:#ffffff;stop-opacity:0.39215687"
         id="stop3932" />
    </linearGradient>
    <radialGradient
       r="12.671875"
       fy="9.9571075"
       fx="6.2001843"
       cy="9.9571075"
       cx="6.7304144"
       gradientTransform="matrix(0,25.083279,-30.794253,0,372.81656,-275.08999)"
       gradientUnits="userSpaceOnUse"
       id="radialGradient5264-4"
       xlink:href="#linearGradient3242-7-3-8-0"
       inkscape:collect="always" />
    <linearGradient
       id="linearGradient2867-449-88-871-390-598-476-591-434-148-57-177-8-3-3-6-4-8-8-8">
      <stop
         offset="0"
         style="stop-color:#ffcd7d;stop-opacity:1"
         id="stop3750-1-0-7-6-6-1-3-9" />
      <stop
         offset="0.26238"
         style="stop-color:#fc8f36;stop-opacity:1"
         id="stop3752-3-7-4-0-32-8-923-0" />
      <stop
         offset="0.704952"
         style="stop-color:#e23a0e;stop-opacity:1"
         id="stop3754-1-8-5-2-7-6-7-1" />
      <stop
         offset="1"
         style="stop-color:#ac441f;stop-opacity:1"
         id="stop3756-1-6-2-6-6-1-96-6" />
    </linearGradient>
    <radialGradient
       inkscape:collect="always"
       xlink:href="#linearGradient3688-166-749-5"
       id="radialGradient4093"
       gradientUnits="userSpaceOnUse"
       gradientTransform="matrix(2.003784,0,0,1.4,27.98813,-17.4)"
       cx="4.9929786"
       cy="43.5"
       fx="4.9929786"
       fy="43.5"
       r="2.5" />
    <linearGradient
       id="linearGradient3688-166-749-5">
      <stop
         offset="0"
         style="stop-color:#181818;stop-opacity:1"
         id="stop2883-0" />
      <stop
         offset="1"
         style="stop-color:#181818;stop-opacity:0"
         id="stop2885-5" />
    </linearGradient>
    <radialGradient
       inkscape:collect="always"
       xlink:href="#linearGradient3688-464-309-8"
       id="radialGradient4095"
       gradientUnits="userSpaceOnUse"
       gradientTransform="matrix(2.003784,0,0,1.4,-20.01187,-104.4)"
       cx="4.9929786"
       cy="43.5"
       fx="4.9929786"
       fy="43.5"
       r="2.5" />
    <linearGradient
       id="linearGradient3688-464-309-8">
      <stop
         offset="0"
         style="stop-color:#181818;stop-opacity:1"
         id="stop2889-9" />
      <stop
         offset="1"
         style="stop-color:#181818;stop-opacity:0"
         id="stop2891-4" />
    </linearGradient>
    <linearGradient
       inkscape:collect="always"
       xlink:href="#linearGradient3702-501-757-0"
       id="linearGradient4097"
       gradientUnits="userSpaceOnUse"
       x1="25.058096"
       y1="47.027729"
       x2="25.058096"
       y2="39.999443" />
    <linearGradient
       id="linearGradient3702-501-757-0">
      <stop
         offset="0"
         style="stop-color:#181818;stop-opacity:0"
         id="stop2895-0" />
      <stop
         offset="0.5"
         style="stop-color:#181818;stop-opacity:1"
         id="stop2897-2" />
      <stop
         offset="1"
         style="stop-color:#181818;stop-opacity:0"
         id="stop2899-6" />
    </linearGradient>
    <linearGradient
       id="linearGradient3811">
      <stop
         offset="0"
         style="stop-color:#000000;stop-opacity:1"
         id="stop3813" />
      <stop
         offset="1"
         style="stop-color:#000000;stop-opacity:0"
         id="stop3815" />
    </linearGradient>
    <radialGradient
       r="35.338131"
       fy="93.467628"
       fx="-4.0287771"
       cy="93.467628"
       cx="-4.0287771"
       gradientTransform="matrix(1.5563924,0,0,0.16978827,70.270355,35.132099)"
       gradientUnits="userSpaceOnUse"
       id="radialGradient6276"
       xlink:href="#linearGradient3811"
       inkscape:collect="always" />
    <linearGradient
       inkscape:collect="always"
       xlink:href="#linearGradient2490-3-4-6-5"
       id="linearGradient3269"
       gradientUnits="userSpaceOnUse"
       gradientTransform="matrix(1.4057547,0,0,1.4057608,-86.117101,-7.650596)"
       x1="24"
       y1="44"
       x2="24"
       y2="3.8990016" />
    <radialGradient
       inkscape:collect="always"
       xlink:href="#linearGradient3242-7-3-8-0"
       id="radialGradient3267"
       gradientUnits="userSpaceOnUse"
       gradientTransform="matrix(2.7311659e-8,3.2852489,-3.4753865,-6.0526824e-8,-23.012628,-25.130949)"
       cx="7.4956832"
       cy="8.4497671"
       fx="7.4956832"
       fy="8.4497671"
       r="19.99999" />
    <linearGradient
       id="linearGradient2490-3-4-6-5">
      <stop
         offset="0"
         style="stop-color:#3f7010;stop-opacity:1"
         id="stop2492-3-9-3-5" />
      <stop
         offset="1"
         style="stop-color:#84a718;stop-opacity:1"
         id="stop2494-8-8-5-0" />
    </linearGradient>
    <linearGradient
       y2="3.8990016"
       x2="24"
       y1="44"
       x1="24"
       gradientTransform="matrix(1.4057547,0,0,1.4057608,-1.617101,-1.6505951)"
       gradientUnits="userSpaceOnUse"
       id="linearGradient3239"
       xlink:href="#linearGradient2490-3-4-6-5"
       inkscape:collect="always" />
    <linearGradient
       id="linearGradient3242-7-3-8-0">
      <stop
         offset="0"
         style="stop-color:#eef87e;stop-opacity:1"
         id="stop3244-5-8-5-6" />
      <stop
         offset="0.26238"
         style="stop-color:#cde34f;stop-opacity:1"
         id="stop3246-9-5-1-5" />
      <stop
         offset="0.66093999"
         style="stop-color:#93b723;stop-opacity:1"
         id="stop3248-7-2-0-7" />
      <stop
         offset="1"
         style="stop-color:#5a7e0d;stop-opacity:1"
         id="stop3250-8-2-8-5" />
    </linearGradient>
    <radialGradient
       r="19.99999"
       fy="8.4497671"
       fx="7.4956832"
       cy="8.4497671"
       cx="7.4956832"
       gradientTransform="matrix(2.7311659e-8,3.2852489,-3.4753865,-6.0526824e-8,61.487372,-19.130948)"
       gradientUnits="userSpaceOnUse"
       id="radialGradient3237"
       xlink:href="#linearGradient3242-7-3-8-0"
       inkscape:collect="always" />
    <radialGradient
       r="12.671875"
       fy="9.9571075"
       fx="6.2001843"
       cy="9.9571075"
       cx="6.7304144"
       gradientTransform="matrix(0,13.393984,-16.443533,0,196.90205,-114.89368)"
       gradientUnits="userSpaceOnUse"
       id="radialGradient3038"
       xlink:href="#linearGradient3242-7-3-8-0"
       inkscape:collect="always" />
    <linearGradient
       y2="43"
       x2="23.99999"
       y1="4.999989"
       x1="23.99999"
       gradientTransform="matrix(1.4324324,0,0,1.4362832,-2.378381,-2.4707782)"
       gradientUnits="userSpaceOnUse"
       id="linearGradient3035"
       xlink:href="#linearGradient3924-2-2-5-8"
       inkscape:collect="always" />
    <linearGradient
       y2="39.150768"
       x2="27.096104"
       y1="10.880992"
       x1="27.096104"
       gradientTransform="matrix(1.4102564,0,0,1.4102564,0.391129,-2.2559982)"
       gradientUnits="userSpaceOnUse"
       id="linearGradient3032"
       xlink:href="#linearGradient3895-9-0-3-5-2-0-4-9"
       inkscape:collect="always" />
    <linearGradient
       y2="54.780239"
       x2="167.98311"
       y1="8.50811"
       x1="167.98311"
       gradientTransform="translate(-130,1.759402e-6)"
       gradientUnits="userSpaceOnUse"
       id="linearGradient3028"
       xlink:href="#linearGradient5803-5"
       inkscape:collect="always" />
    <linearGradient
       gradientUnits="userSpaceOnUse"
       xlink:href="#linearGradient3702-501-757-8-4-1-1"
       id="linearGradient6394"
       y2="39.999443"
       x2="25.058096"
       y1="47.027729"
       x1="25.058096" />
    <linearGradient
       id="linearGradient3702-501-757-8-4-1-1">
      <stop
         offset="0"
         style="stop-color:#181818;stop-opacity:0"
         id="stop2895-8-9-9-1" />
      <stop
         offset="0.5"
         style="stop-color:#181818;stop-opacity:1"
         id="stop2897-7-8-7-7" />
      <stop
         offset="1"
         style="stop-color:#181818;stop-opacity:0"
         id="stop2899-4-5-1-5" />
    </linearGradient>
    <linearGradient
       id="linearGradient3688-464-309-9-2-4-2">
      <stop
         offset="0"
         style="stop-color:#181818;stop-opacity:1"
         id="stop2889-7-9-6-9" />
      <stop
         offset="1"
         style="stop-color:#181818;stop-opacity:0"
         id="stop2891-6-6-1-7" />
    </linearGradient>
    <radialGradient
       gradientTransform="matrix(2.003784,0,0,1.4,-20.01187,-104.4)"
       gradientUnits="userSpaceOnUse"
       xlink:href="#linearGradient3688-464-309-9-2-4-2"
       id="radialGradient3339-1-4"
       fy="43.5"
       fx="4.9929786"
       r="2.5"
       cy="43.5"
       cx="4.9929786" />
    <linearGradient
       id="linearGradient3688-166-749-4-0-3-8">
      <stop
         offset="0"
         style="stop-color:#181818;stop-opacity:1"
         id="stop2883-4-0-1-8" />
      <stop
         offset="1"
         style="stop-color:#181818;stop-opacity:0"
         id="stop2885-9-2-9-6" />
    </linearGradient>
    <radialGradient
       gradientTransform="matrix(2.003784,0,0,1.4,27.98813,-17.4)"
       gradientUnits="userSpaceOnUse"
       xlink:href="#linearGradient3688-166-749-4-0-3-8"
       id="radialGradient3337-2-2"
       fy="43.5"
       fx="4.9929786"
       r="2.5"
       cy="43.5"
       cx="4.9929786" />
    <linearGradient
       id="linearGradient2867-449-88-871-390-598-476-591-434-148-57-177-8-3-3-6-4-8-8-8-7">
      <stop
         offset="0"
         style="stop-color:#ffcd7d;stop-opacity:1"
         id="stop3750-1-0-7-6-6-1-3-9-3" />
      <stop
         offset="0.26238"
         style="stop-color:#fc8f36;stop-opacity:1"
         id="stop3752-3-7-4-0-32-8-923-0-5" />
      <stop
         offset="0.704952"
         style="stop-color:#e23a0e;stop-opacity:1"
         id="stop3754-1-8-5-2-7-6-7-1-3" />
      <stop
         offset="1"
         style="stop-color:#ac441f;stop-opacity:1"
         id="stop3756-1-6-2-6-6-1-96-6-1" />
    </linearGradient>
    <radialGradient
       gradientTransform="matrix(0,13.393984,-16.443533,0,196.90205,-114.89368)"
       gradientUnits="userSpaceOnUse"
       xlink:href="#linearGradient2867-449-88-871-390-598-476-591-434-148-57-177-8-3-3-6-4-8-8-8-7"
       id="radialGradient3402-7-1-6"
       fy="9.9571075"
       fx="6.2001843"
       r="12.671875"
       cy="9.9571075"
       cx="6.7304144" />
    <linearGradient
       id="linearGradient3924-2-2-5-8">
      <stop
         offset="0"
         style="stop-color:#ffffff;stop-opacity:1"
         id="stop3926-9-4-9-6" />
      <stop
         offset="0.06316455"
         style="stop-color:#ffffff;stop-opacity:0.23529412"
         id="stop3928-9-8-6-5" />
      <stop
         offset="0.95056331"
         style="stop-color:#ffffff;stop-opacity:0.15686275"
         id="stop3930-3-5-1-7" />
      <stop
         offset="1"
         style="stop-color:#ffffff;stop-opacity:0.39215687"
         id="stop3932-8-0-4-8" />
    </linearGradient>
    <linearGradient
       gradientTransform="matrix(1.4324324,0,0,1.4362832,-2.378381,-2.4707782)"
       gradientUnits="userSpaceOnUse"
       xlink:href="#linearGradient3924-2-2-5-8"
       id="linearGradient3381-5-4"
       y2="43"
       x2="23.99999"
       y1="4.999989"
       x1="23.99999" />
    <linearGradient
       id="linearGradient3895-9-0-3-5-2-0-4-9">
      <stop
         offset="0"
         style="stop-color:#dc5639;stop-opacity:1"
         id="stop3897-0-5-7-89-6-6-7-0" />
      <stop
         offset="1"
         style="stop-color:#9d0f0f;stop-opacity:1"
         id="stop3899-8-7-06-3-8-3-8-0" />
    </linearGradient>
    <linearGradient
       gradientTransform="matrix(1.4102564,0,0,1.4102564,0.391129,-2.2559982)"
       gradientUnits="userSpaceOnUse"
       xlink:href="#linearGradient3895-9-0-3-5-2-0-4-9"
       id="linearGradient5801"
       y2="39.150768"
       x2="27.096104"
       y1="10.880992"
       x1="27.096104" />
    <linearGradient
       id="linearGradient5803-5">
      <stop
         offset="0"
         style="stop-color:#fff5ef;stop-opacity:1"
         id="stop5805-9" />
      <stop
         offset="1"
         style="stop-color:#fef8dd;stop-opacity:1"
         id="stop5807-6" />
    </linearGradient>
    <linearGradient
       gradientTransform="translate(-130,1.759402e-6)"
       gradientUnits="userSpaceOnUse"
       xlink:href="#linearGradient5803-5"
       id="linearGradient5809"
       y2="54.780239"
       x2="167.98311"
       y1="8.50811"
       x1="167.98311" />
    <linearGradient
       inkscape:collect="always"
       xlink:href="#linearGradient3924-2-2-5-8"
       id="linearGradient3912"
       gradientUnits="userSpaceOnUse"
       gradientTransform="matrix(1.4324324,0,0,1.4362832,-54.177425,-35.117519)"
       x1="23.99999"
       y1="4.999989"
       x2="23.99999"
       y2="43" />
    <radialGradient
       inkscape:collect="always"
       xlink:href="#linearGradient3242-7-3-8-0"
       id="radialGradient3915"
       gradientUnits="userSpaceOnUse"
       gradientTransform="matrix(0,13.393984,-16.443533,0,145.10301,-147.54042)"
       cx="6.7304144"
       cy="9.9571075"
       fx="6.2001843"
       fy="9.9571075"
       r="12.671875" />
  </defs>
  <sodipodi:namedview
     id="base"
     pagecolor="#ffffff"
     bordercolor="#666666"
     borderopacity="1.0"
     inkscape:pageopacity="0.0"
     inkscape:pageshadow="2"
     inkscape:zoom="7.7781746"
     inkscape:cx="58.101289"
     inkscape:cy="56.189923"
     inkscape:current-layer="layer1"
     showgrid="true"
     inkscape:document-units="px"
     inkscape:grid-bbox="true"
     inkscape:window-width="1920"
     inkscape:window-height="1033"
     inkscape:window-x="0"
     inkscape:window-y="24"
     inkscape:window-maximized="1" />
  <metadata
     id="metadata3054">
    <rdf:RDF>
      <cc:Work
         rdf:about="">
        <dc:format>image/svg+xml</dc:format>
        <dc:type
           rdf:resource="http://purl.org/dc/dcmitype/StillImage" />
        <dc:title></dc:title>
      </cc:Work>
    </rdf:RDF>
  </metadata>
  <g
     id="layer1"
     inkscape:label="Layer 1"
     inkscape:groupmode="layer"
     transform="translate(0,64)">
    <path
       inkscape:connector-curvature="0"
       d="m 119,51.001809 a 55,6 0 0 1 -109.9999975,0 55,6 0 1 1 109.9999975,0 z"
       id="path3041"
       style="opacity:0.2;color:#000000;fill:url(#radialGradient6276);fill-opacity:1;fill-rule:nonzero;stroke:none;stroke-width:1;marker:none;visibility:visible;display:inline;overflow:visible;enable-background:accumulate" />
    <g
       transform="matrix(2.6999989,0,0,0.55555607,-0.8000075,27.890689)"
       id="g2036"
       style="display:inline">
      <g
         transform="matrix(1.052632,0,0,1.285713,-1.263158,-13.42854)"
         id="g3712"
         style="opacity:0.4">
        <rect
           width="5"
           height="7"
           x="38"
           y="40"
           id="rect2801"
           style="fill:url(#radialGradient4093);fill-opacity:1;stroke:none" />
        <rect
           width="5"
           height="7"
           x="-10"
           y="-47"
           transform="scale(-1,-1)"
           id="rect3696"
           style="fill:url(#radialGradient4095);fill-opacity:1;stroke:none" />
        <rect
           width="28"
           height="7.0000005"
           x="10"
           y="40"
           id="rect3700"
           style="fill:url(#linearGradient4097);fill-opacity:1;stroke:none" />
      </g>
    </g>
    <rect
       width="103"
       height="103"
       rx="6.0545406"
       ry="6.0545406"
       x="12.499989"
       y="-51.498192"
       id="rect5505-21-3"
       style="color:#000000;fill:url(#radialGradient5264-4);fill-opacity:1;fill-rule:nonzero;stroke:none;stroke-width:0.99999994;marker:none;visibility:visible;display:inline;overflow:visible;enable-background:accumulate" />
    <rect
       width="101"
       height="101"
       rx="5"
       ry="5"
       x="13.499989"
       y="-50.498192"
       id="rect6741-7"
       style="opacity:0.5;fill:none;stroke:url(#linearGradient4136);stroke-width:0.99999994;stroke-linecap:round;stroke-linejoin:round;stroke-miterlimit:4;stroke-opacity:1;stroke-dasharray:none;stroke-dashoffset:0" />
    <rect
       width="103"
       height="103"
       rx="6.0545406"
       ry="6.0545406"
       x="12.499989"
       y="-51.498192"
       id="rect5505-21-3-1"
       style="opacity:0.6;color:#000000;fill:none;stroke:#407110;stroke-width:1;stroke-linecap:round;stroke-linejoin:round;stroke-miterlimit:4;stroke-opacity:1;stroke-dasharray:none;stroke-dashoffset:0;marker:none;visibility:visible;display:inline;overflow:visible;enable-background:accumulate" />
    <path
       inkscape:connector-curvature="0"
       id="path3252"
       d="m 64.000003,-30 c -8.836558,0 -16.000002,5.372584 -16.000002,12 l 32.000002,0 c 0,-6.627416 -7.16345,-12 -16,-12 z m -20.250002,16 c -2.327092,2.382551 -4.444455,5.122703 -6.249999,8.249999 C 28.663446,9.5553648 30.770982,27.372584 42.250001,34 l 17.750002,-30.749999 0,-17.250001 -16.250002,0 z m 24.250002,0 0,17.250001 L 85.749993,34 c 11.47903,-6.627416 13.58656,-24.4446352 4.75,-39.750001 -1.80554,-3.127296 -3.9229,-5.867448 -6.25,-8.249999 l -16.24999,0 z m -19.875002,3.999999 c 1.122756,0 2,0.895432 2,2 0,1.104568 -0.877244,2 -2,2 -1.122756,0 -2.125,-0.895432 -2.125,-2 0,-1.104568 1.002244,-2 2.125,-2 z m 32.000002,0 c 1.12275,0 1.99999,0.895432 1.99999,2 0,1.104568 -0.87724,2 -1.99999,2 -1.12276,0 -2.125,-0.895432 -2.125,-2 0,-1.104568 1.00224,-2 2.125,-2 z M 52.125001,2.000001 c 1.122756,0 2,0.895432 2,2 0,1.104568 -0.877244,1.9999999 -2,1.9999999 -1.122756,0 -2.125,-0.8954319 -2.125,-1.9999999 0,-1.104568 1.002244,-2 2.125,-2 z m 24.000002,0 c 1.12275,0 2,0.895432 2,2 0,1.104568 -0.87725,1.9999999 -2,1.9999999 -1.12276,0 -2.125,-0.8954319 -2.125,-1.9999999 0,-1.104568 1.00224,-2 2.125,-2 z m -12.125,1.75 c -0.065,0.526544 -0.23608,1.039768 -0.5,1.5 l -5.000002,8.75 11.000002,0 -5,-8.75 c -0.26392,-0.460232 -0.43501,-0.973456 -0.5,-1.5 z m -23.875001,10.25 c 1.122755,0 1.999999,0.895432 1.999999,2 0,1.104567 -0.877244,1.999999 -1.999999,1.999999 -1.122756,0 -2.125,-0.895432 -2.125,-1.999999 0,-1.104568 1.002244,-2 2.125,-2 z m 47.999991,0 c 1.12276,0 2,0.895432 2,2 0,1.104567 -0.87724,1.999999 -2,1.999999 -1.12275,0 -2.125,-0.895432 -2.125,-1.999999 0,-1.104568 1.00225,-2 2.125,-2 z M 56.125001,18 l -4.375,7.625 C 54.684885,28.273772 59.049117,30 64.000003,30 c 4.95088,0 9.31511,-1.726228 12.25,-4.375 L 71.875003,18 56.125001,18 z"
       style="fill:#407110;fill-opacity:1;fill-rule:nonzero;stroke:none;opacity:0.2" />
    <path
       style="fill:#ffffff;fill-opacity:1;fill-rule:nonzero;stroke:none"
       d="m 64.000003,-32 c -8.836558,0 -16.000002,5.372584 -16.000002,12 l 32.000002,0 c 0,-6.627416 -7.16345,-12 -16,-12 z m -20.250002,16 c -2.327092,2.382551 -4.444455,5.122703 -6.249999,8.249999 C 28.663446,7.5553648 30.770982,25.372584 42.250001,32 l 17.750002,-30.749999 0,-17.250001 -16.250002,0 z m 24.250002,0 0,17.250001 L 85.749993,32 c 11.47903,-6.627416 13.58656,-24.4446352 4.75,-39.750001 -1.80554,-3.127296 -3.9229,-5.867448 -6.25,-8.249999 l -16.24999,0 z m -19.875002,3.999999 c 1.122756,0 2,0.895432 2,2 0,1.104568 -0.877244,2 -2,2 -1.122756,0 -2.125,-0.895432 -2.125,-2 0,-1.104568 1.002244,-2 2.125,-2 z m 32.000002,0 c 1.12275,0 1.99999,0.895432 1.99999,2 0,1.104568 -0.87724,2 -1.99999,2 -1.12276,0 -2.125,-0.895432 -2.125,-2 0,-1.104568 1.00224,-2 2.125,-2 z M 52.125001,9.9999999e-7 c 1.122756,0 2,0.89543200000001 2,2.00000000000001 0,1.104568 -0.877244,1.9999999 -2,1.9999999 -1.122756,0 -2.125,-0.8954319 -2.125,-1.9999999 0,-1.104568 1.002244,-2.00000000000001 2.125,-2.00000000000001 z m 24.000002,0 c 1.12275,0 2,0.89543200000001 2,2.00000000000001 0,1.104568 -0.87725,1.9999999 -2,1.9999999 -1.12276,0 -2.125,-0.8954319 -2.125,-1.9999999 0,-1.104568 1.00224,-2.00000000000001 2.125,-2.00000000000001 z M 64.000003,1.750001 c -0.065,0.526544 -0.23608,1.039768 -0.5,1.5 l -5.000002,8.75 11.000002,0 -5,-8.75 c -0.26392,-0.460232 -0.43501,-0.973456 -0.5,-1.5 z m -23.875001,10.25 c 1.122755,0 1.999999,0.895432 1.999999,2 0,1.104567 -0.877244,1.999999 -1.999999,1.999999 -1.122756,0 -2.125,-0.895432 -2.125,-1.999999 0,-1.104568 1.002244,-2 2.125,-2 z m 47.999991,0 c 1.12276,0 2,0.895432 2,2 0,1.104567 -0.87724,1.999999 -2,1.999999 -1.12275,0 -2.125,-0.895432 -2.125,-1.999999 0,-1.104568 1.00225,-2 2.125,-2 z M 56.125001,16 l -4.375,7.625 C 54.684885,26.273772 59.049117,28 64.000003,28 c 4.95088,0 9.31511,-1.726228 12.25,-4.375 L 71.875003,16 56.125001,16 z"
       id="path3041-5"
       inkscape:connector-curvature="0" />
  </g>
</svg>
