<?xml version="1.0" encoding="UTF-8" standalone="no"?>
<svg
   xmlns:dc="http://purl.org/dc/elements/1.1/"
   xmlns:cc="http://creativecommons.org/ns#"
   xmlns:rdf="http://www.w3.org/1999/02/22-rdf-syntax-ns#"
   xmlns:svg="http://www.w3.org/2000/svg"
   xmlns="http://www.w3.org/2000/svg"
   xmlns:sodipodi="http://sodipodi.sourceforge.net/DTD/sodipodi-0.dtd"
   xmlns:inkscape="http://www.inkscape.org/namespaces/inkscape"
   height="128"
   width="128"
   version="1.1"
   id="svg67"
   sodipodi:docname="application-vnd.wolfram.nb.svg"
   inkscape:version="1.0.1 (3bc2e813f5, 2020-09-07)">
  <metadata
     id="metadata71">
    <rdf:RDF>
      <cc:Work
         rdf:about="">
        <dc:format>image/svg+xml</dc:format>
        <dc:type
           rdf:resource="http://purl.org/dc/dcmitype/StillImage" />
      </cc:Work>
    </rdf:RDF>
  </metadata>
  <sodipodi:namedview
     pagecolor="#ffffff"
     bordercolor="#666666"
     borderopacity="1"
     objecttolerance="10"
     gridtolerance="10"
     guidetolerance="10"
     inkscape:pageopacity="0"
     inkscape:pageshadow="2"
     inkscape:window-width="1920"
     inkscape:window-height="2097"
     id="namedview69"
     showgrid="false"
     inkscape:zoom="5.4521426"
     inkscape:cx="47.986744"
     inkscape:cy="79.733246"
     inkscape:window-x="3840"
     inkscape:window-y="30"
     inkscape:window-maximized="0"
     inkscape:current-layer="svg67" />
  <defs
     id="defs47">
    <linearGradient
       id="f"
       y2="42.586"
       gradientUnits="userSpaceOnUse"
       x2="24"
       gradientTransform="matrix(2.4595 0 0 3.1081 4.973 -78.595)"
       y1="5.5641"
       x1="24">
      <stop
         stop-color="#fff"
         offset="0"
         id="stop2" />
      <stop
         stop-color="#fff"
         stop-opacity=".23529"
         offset=".0097436"
         id="stop4" />
      <stop
         stop-color="#fff"
         stop-opacity=".15686"
         offset=".98165"
         id="stop6" />
      <stop
         stop-color="#fff"
         stop-opacity=".39216"
         offset="1"
         id="stop8" />
    </linearGradient>
    <radialGradient
       id="b"
       fx="7.2758"
       gradientUnits="userSpaceOnUse"
       cy="9.9571"
       cx="7.8061"
       gradientTransform="matrix(-4.2959e-7 17.553 -21.502 -5.2689e-7 278.07 -223.53)"
       r="12.672">
      <stop
         stop-color="#eca2a0"
         offset="0"
         id="stop11" />
      <stop
         stop-color="#dc5a57"
         offset=".26238"
         id="stop13" />
      <stop
         stop-color="#d02e2a"
         offset=".70495"
         id="stop15" />
      <stop
         stop-color="#9d2320"
         offset="1"
         id="stop17" />
    </radialGradient>
    <linearGradient
       id="d"
       y2=".91791"
       gradientUnits="userSpaceOnUse"
       x2="25"
       gradientTransform="matrix(2.6571 0 0 2.6587 .22872 -63.816)"
       y1="47.935"
       x1="25">
      <stop
         stop-color="#9d2320"
         offset="0"
         id="stop20" />
      <stop
         stop-color="#b52825"
         offset="1"
         id="stop22" />
    </linearGradient>
    <linearGradient
       id="e"
       y2="39.999"
       gradientUnits="userSpaceOnUse"
       x2="25.058"
       gradientTransform="matrix(3.1429 0 0 1.2857 -11.429 -2.4286)"
       y1="47.028"
       x1="25.058">
      <stop
         stop-color="#181818"
         stop-opacity="0"
         offset="0"
         id="stop25" />
      <stop
         stop-color="#181818"
         offset=".5"
         id="stop27" />
      <stop
         stop-color="#181818"
         stop-opacity="0"
         offset="1"
         id="stop29" />
    </linearGradient>
    <radialGradient
       id="c"
       gradientUnits="userSpaceOnUse"
       cy="43.5"
       cx="4.993"
       gradientTransform="matrix(2.4045 0 0 1.8 -32.014 -131.8)"
       r="2.5">
      <stop
         stop-color="#181818"
         offset="0"
         id="stop32" />
      <stop
         stop-color="#181818"
         stop-opacity="0"
         offset="1"
         id="stop34" />
    </radialGradient>
    <radialGradient
       id="a"
       gradientUnits="userSpaceOnUse"
       cy="43.5"
       cx="4.993"
       gradientTransform="matrix(2.4045 0 0 1.8 95.986 -24.8)"
       r="2.5">
      <stop
         stop-color="#181818"
         offset="0"
         id="stop37" />
      <stop
         stop-color="#181818"
         stop-opacity="0"
         offset="1"
         id="stop39" />
    </radialGradient>
    <linearGradient
       id="g"
       y2="15"
       gradientUnits="userSpaceOnUse"
       x2="21"
       gradientTransform="matrix(2.7143 0 0 2.7143 -4.7143 -70.718)"
       y1="29"
       x1="21">
      <stop
         stop-color="#f8dbd9"
         offset="0"
         id="stop42" />
      <stop
         stop-color="#fff"
         offset="1"
         id="stop44" />
    </linearGradient>
  </defs>
  <g
     transform="translate(0,64)"
     id="g65">
    <rect
       opacity=".4"
       height="9"
       width="6"
       y="49"
       x="108"
       fill="url(#a)"
       id="rect49" />
    <rect
       opacity=".4"
       transform="scale(-1)"
       height="9"
       width="6"
       y="-58"
       x="-20"
       fill="url(#c)"
       id="rect51" />
    <rect
       opacity=".4"
       height="9"
       width="88"
       y="49"
       x="20"
       fill="url(#e)"
       id="rect53" />
    <path
       stroke-linejoin="round"
       style="color:#000000"
       d="m17.5-62.493h93v116.99h-93v-117z"
       stroke="url(#d)"
       fill="url(#b)"
       id="path55" />
    <path
       opacity=".5"
       stroke-linejoin="round"
       d="m109.5 53.5h-91v-115h91z"
       stroke="url(#f)"
       stroke-linecap="round"
       fill="none"
       id="path57" />
  </g>
  <path
     inkscape:connector-curvature="0"
     d="m 45.530895,34.615446 c 0,0 3.433701,11.065929 1.336433,18.162381 -2.095272,7.094463 -12.742943,15.085192 -12.742943,15.085192 0,0 13.920046,0.756852 19.206036,4.134789 5.284001,3.377929 10.657627,16.393746 10.657627,16.393746 0,0 7.136289,-14.340301 10.121859,-16.393746 2.985571,-2.051459 19.765708,-4.154704 19.765708,-4.154704 0,0 -12.268916,-11.545924 -13.312575,-14.76652 -1.041665,-3.220591 1.91005,-18.45317 1.91005,-18.45317 0,0 -11.042025,7.460934 -18.795744,7.460934 -7.75372,0 -18.146451,-7.468902 -18.146451,-7.468902 z M 72.456789,48.54943 c -0.171285,2.059432 -0.58755,3.527321 0.529796,6.978944 1.240832,3.832046 2.507563,4.576944 4.009309,6.355541 0.183241,0.217099 0.410288,0.432199 0.599505,0.649295 -0.334606,0.07767 -0.697101,0.127468 -1.02374,0.207135 -2.296439,0.559675 -3.87985,0.563656 -6.972967,2.6908 -3.095118,2.127143 -3.678686,3.654782 -4.957364,5.570806 -0.163321,0.246971 -0.306719,0.52581 -0.470042,0.778765 -1.591375,-2.324326 -3.561171,-4.586909 -6.550726,-6.496956 -2.306399,-1.473862 -4.596861,-2.288471 -6.851473,-2.921838 1.499754,-2.093281 2.882001,-4.425569 3.738436,-7.327487 0.667222,-2.256608 0.756851,-4.36184 0.836517,-6.439192 2.513533,0.830539 5.258105,1.455936 8.333306,1.455936 3.222582,0 6.140435,-0.619422 8.779443,-1.501749 z"
     style="clip-rule:evenodd;fill:#ffffff;fill-opacity:1;fill-rule:evenodd;stroke-width:1.99171;stroke-linejoin:round;stroke-miterlimit:2"
     id="path4" />
</svg>
