<?xml version="1.0" encoding="UTF-8" standalone="no"?>
<svg
   xmlns:dc="http://purl.org/dc/elements/1.1/"
   xmlns:cc="http://creativecommons.org/ns#"
   xmlns:rdf="http://www.w3.org/1999/02/22-rdf-syntax-ns#"
   xmlns:svg="http://www.w3.org/2000/svg"
   xmlns="http://www.w3.org/2000/svg"
   xmlns:xlink="http://www.w3.org/1999/xlink"
   xmlns:sodipodi="http://sodipodi.sourceforge.net/DTD/sodipodi-0.dtd"
   xmlns:inkscape="http://www.inkscape.org/namespaces/inkscape"
   height="128"
   width="128"
   version="1.1"
   id="svg67"
   sodipodi:docname="application-vnd.wolfram.nb.svg"
   inkscape:version="1.0.1 (3bc2e813f5, 2020-09-07)">
  <metadata
     id="metadata71">
    <rdf:RDF>
      <cc:Work
         rdf:about="">
        <dc:format>image/svg+xml</dc:format>
        <dc:type
           rdf:resource="http://purl.org/dc/dcmitype/StillImage" />
      </cc:Work>
    </rdf:RDF>
  </metadata>
  <sodipodi:namedview
     pagecolor="#ffffff"
     bordercolor="#666666"
     borderopacity="1"
     objecttolerance="10"
     gridtolerance="10"
     guidetolerance="10"
     inkscape:pageopacity="0"
     inkscape:pageshadow="2"
     inkscape:window-width="1920"
     inkscape:window-height="2097"
     id="namedview69"
     showgrid="false"
     inkscape:zoom="7.6672572"
     inkscape:cx="46.996588"
     inkscape:cy="51.762687"
     inkscape:window-x="1484"
     inkscape:window-y="178"
     inkscape:window-maximized="0"
     inkscape:current-layer="svg67"
     inkscape:document-rotation="0" />
  <defs
     id="defs47">
    <linearGradient
       id="linearGradient1033">
      <stop
         id="stop1027"
         style="stop-color:#ffffff;stop-opacity:0.23529412"
         offset="0" />
      <stop
         id="stop1029"
         style="stop-color:#ffffff;stop-opacity:0.15686275"
         offset="0.64191502" />
      <stop
         id="stop1031"
         style="stop-color:#ffffff;stop-opacity:0.39215687"
         offset="1" />
    </linearGradient>
    <linearGradient
       id="f"
       y2="42.586"
       gradientUnits="userSpaceOnUse"
       x2="24"
       gradientTransform="matrix(2.4595 0 0 3.1081 4.973 -78.595)"
       y1="5.5641"
       x1="24">
      <stop
         stop-color="#fff"
         offset="0"
         id="stop2" />
      <stop
         stop-color="#fff"
         stop-opacity=".23529"
         offset=".0097436"
         id="stop4" />
      <stop
         stop-color="#fff"
         stop-opacity=".15686"
         offset=".98165"
         id="stop6" />
      <stop
         stop-color="#fff"
         stop-opacity=".39216"
         offset="1"
         id="stop8" />
    </linearGradient>
    <radialGradient
       id="b"
       fx="7.2758"
       gradientUnits="userSpaceOnUse"
       cy="9.9571"
       cx="7.8061"
       gradientTransform="matrix(-4.2959e-7 17.553 -21.502 -5.2689e-7 278.07 -223.53)"
       r="12.672">
      <stop
         stop-color="#eca2a0"
         offset="0"
         id="stop11" />
      <stop
         stop-color="#dc5a57"
         offset=".26238"
         id="stop13" />
      <stop
         stop-color="#d02e2a"
         offset=".70495"
         id="stop15" />
      <stop
         stop-color="#9d2320"
         offset="1"
         id="stop17" />
    </radialGradient>
    <linearGradient
       id="d"
       y2=".91791"
       gradientUnits="userSpaceOnUse"
       x2="25"
       gradientTransform="matrix(2.6571 0 0 2.6587 .22872 -63.816)"
       y1="47.935"
       x1="25">
      <stop
         stop-color="#9d2320"
         offset="0"
         id="stop20" />
      <stop
         stop-color="#b52825"
         offset="1"
         id="stop22" />
    </linearGradient>
    <linearGradient
       id="e"
       y2="39.999"
       gradientUnits="userSpaceOnUse"
       x2="25.058"
       gradientTransform="matrix(3.1429 0 0 1.2857 -11.429 -2.4286)"
       y1="47.028"
       x1="25.058">
      <stop
         stop-color="#181818"
         stop-opacity="0"
         offset="0"
         id="stop25" />
      <stop
         stop-color="#181818"
         offset=".5"
         id="stop27" />
      <stop
         stop-color="#181818"
         stop-opacity="0"
         offset="1"
         id="stop29" />
    </linearGradient>
    <radialGradient
       id="c"
       gradientUnits="userSpaceOnUse"
       cy="43.5"
       cx="4.993"
       gradientTransform="matrix(2.4045 0 0 1.8 -32.014 -131.8)"
       r="2.5">
      <stop
         stop-color="#181818"
         offset="0"
         id="stop32" />
      <stop
         stop-color="#181818"
         stop-opacity="0"
         offset="1"
         id="stop34" />
    </radialGradient>
    <radialGradient
       id="a"
       gradientUnits="userSpaceOnUse"
       cy="43.5"
       cx="4.993"
       gradientTransform="matrix(2.4045 0 0 1.8 95.986 -24.8)"
       r="2.5">
      <stop
         stop-color="#181818"
         offset="0"
         id="stop37" />
      <stop
         stop-color="#181818"
         stop-opacity="0"
         offset="1"
         id="stop39" />
    </radialGradient>
    <linearGradient
       id="g"
       y2="15"
       gradientUnits="userSpaceOnUse"
       x2="21"
       gradientTransform="matrix(2.7143 0 0 2.7143 -4.7143 -70.718)"
       y1="29"
       x1="21">
      <stop
         stop-color="#f8dbd9"
         offset="0"
         id="stop42" />
      <stop
         stop-color="#fff"
         offset="1"
         id="stop44" />
    </linearGradient>
    <linearGradient
       id="linearGradient3707-319-631-407-324-616-674-812-821-107-178-392-400-6-7-4">
      <stop
         id="stop5440-4-4-7"
         style="stop-color:#272727;stop-opacity:1"
         offset="0" />
      <stop
         id="stop5442-3-5-4"
         style="stop-color:#454545;stop-opacity:1"
         offset="1" />
    </linearGradient>
    <linearGradient
       id="linearGradient3292-0">
      <stop
         id="stop3294-8"
         style="stop-color:#ffffff;stop-opacity:1"
         offset="0" />
      <stop
         id="stop3296-5"
         style="stop-color:#ffffff;stop-opacity:0.23529412"
         offset="0.50959647" />
      <stop
         id="stop3298-3"
         style="stop-color:#ffffff;stop-opacity:0.15686275"
         offset="0.97377032" />
      <stop
         id="stop3300-9"
         style="stop-color:#ffffff;stop-opacity:0.39215687"
         offset="1" />
    </linearGradient>
    <linearGradient
       inkscape:collect="always"
       xlink:href="#linearGradient3707-319-631-407-324-616-674-812-821-107-178-392-400-6-7-4"
       id="linearGradient917"
       x1="63.710163"
       y1="34.61755"
       x2="63.988049"
       y2="88.391556"
       gradientUnits="userSpaceOnUse" />
    <linearGradient
       id="linearGradient2867-449-88-871-390-598-476-591-434-148-57-177-641-289-620-227-114-444-680-744-8-7-5">
      <stop
         id="stop5430-8-6-6"
         style="stop-color:#5f5f5f;stop-opacity:1"
         offset="0" />
      <stop
         id="stop5432-3-5-7"
         style="stop-color:#4f4f4f;stop-opacity:1"
         offset="0.26238" />
      <stop
         id="stop5434-1-6-7"
         style="stop-color:#3b3b3b;stop-opacity:1"
         offset="0.704952" />
      <stop
         id="stop5436-8-9-40"
         style="stop-color:#2b2b2b;stop-opacity:1"
         offset="1" />
    </linearGradient>
    <linearGradient
       inkscape:collect="always"
       xlink:href="#linearGradient2867-449-88-871-390-598-476-591-434-148-57-177-641-289-620-227-114-444-680-744-8-7-5"
       id="linearGradient956"
       x1="34.124386"
       y1="61.503502"
       x2="93.875618"
       y2="61.503502"
       gradientUnits="userSpaceOnUse" />
    <linearGradient
       inkscape:collect="always"
       xlink:href="#linearGradient1033"
       id="linearGradient956-6"
       x1="64.79985"
       y1="24.454468"
       x2="89.155487"
       y2="77.160332"
       gradientUnits="userSpaceOnUse" />
    <linearGradient
       inkscape:collect="always"
       xlink:href="#linearGradient3292-0"
       id="linearGradient956-6-9"
       x1="58.69355"
       y1="15.261873"
       x2="81.8395"
       y2="84.689522"
       gradientUnits="userSpaceOnUse"
       gradientTransform="translate(-0.02124393,0.008669)" />
  </defs>
  <g
     transform="translate(0,64)"
     id="g65">
    <rect
       opacity=".4"
       height="9"
       width="6"
       y="49"
       x="108"
       fill="url(#a)"
       id="rect49" />
    <rect
       opacity=".4"
       transform="scale(-1)"
       height="9"
       width="6"
       y="-58"
       x="-20"
       fill="url(#c)"
       id="rect51" />
    <rect
       opacity=".4"
       height="9"
       width="88"
       y="49"
       x="20"
       fill="url(#e)"
       id="rect53" />
    <path
       stroke-linejoin="round"
       style="color:#000000"
       d="m17.5-62.493h93v116.99h-93v-117z"
       stroke="url(#d)"
       fill="url(#b)"
       id="path55" />
    <path
       opacity=".5"
       stroke-linejoin="round"
       d="m109.5 53.5h-91v-115h91z"
       stroke="url(#f)"
       stroke-linecap="round"
       fill="none"
       id="path57" />
  </g>
  <path
     inkscape:connector-curvature="0"
     d="m 45.530895,34.615446 c 0,0 3.433701,11.065929 1.336433,18.162381 -2.095272,7.094463 -12.742943,15.085192 -12.742943,15.085192 0,0 13.920046,0.756852 19.206036,4.134789 5.284001,3.377929 10.657627,16.393746 10.657627,16.393746 0,0 7.136289,-14.340301 10.121859,-16.393746 2.985571,-2.051459 19.765708,-4.154704 19.765708,-4.154704 0,0 -12.268916,-11.545924 -13.312575,-14.76652 -1.041665,-3.220591 1.91005,-18.45317 1.91005,-18.45317 0,0 -11.042025,7.460934 -18.795744,7.460934 -7.75372,0 -18.146451,-7.468902 -18.146451,-7.468902 z M 72.456789,48.54943 c -0.171285,2.059432 -0.58755,3.527321 0.529796,6.978944 1.240832,3.832046 2.507563,4.576944 4.009309,6.355541 0.183241,0.217099 0.410288,0.432199 0.599505,0.649295 -0.334606,0.07767 -0.697101,0.127468 -1.02374,0.207135 -2.296439,0.559675 -3.87985,0.563656 -6.972967,2.6908 -3.095118,2.127143 -3.678686,3.654782 -4.957364,5.570806 -0.163321,0.246971 -0.306719,0.52581 -0.470042,0.778765 -1.591375,-2.324326 -3.561171,-4.586909 -6.550726,-6.496956 -2.306399,-1.473862 -4.596861,-2.288471 -6.851473,-2.921838 1.499754,-2.093281 2.882001,-4.425569 3.738436,-7.327487 0.667222,-2.256608 0.756851,-4.36184 0.836517,-6.439192 2.513533,0.830539 5.258105,1.455936 8.333306,1.455936 3.222582,0 6.140435,-0.619422 8.779443,-1.501749 z"
     style="clip-rule:evenodd;fill:url(#linearGradient917);fill-opacity:1;fill-rule:evenodd;stroke-width:1;stroke-linejoin:miter;stroke-miterlimit:4.9;stroke:url(#linearGradient956);stroke-opacity:1;stroke-dasharray:none;stroke-linecap:square"
     id="path4" />
  <path
     id="path4-70"
     style="clip-rule:evenodd;fill:none;fill-opacity:1;fill-rule:evenodd;stroke:url(#linearGradient956-6);stroke-width:1;stroke-linecap:square;stroke-linejoin:miter;stroke-miterlimit:4.9;stroke-dasharray:none;stroke-opacity:1"
     d="m 80.185547,37.212891 c -4.412361,2.510253 -9.072762,4.826624 -14.123047,5.679687 -4.420471,0.725664 -8.814346,-0.811181 -12.773324,-2.644657 -2.110391,-0.979563 -4.144615,-2.11776 -6.117301,-3.349483 1.087867,4.799763 1.864736,9.814724 1.003906,14.714843 -0.768646,4.094016 -3.457259,7.475693 -6.205574,10.467272 -1.641294,1.772988 -3.414932,3.420935 -5.261223,4.978041 4.984158,0.513905 10.031291,1.144095 14.752653,2.903239 2.240608,0.793631 4.12771,2.329067 5.593051,4.176839 2.906016,3.604521 5.048562,7.749561 7,11.927734 2.365315,-4.478611 4.713038,-9.005841 7.733431,-13.086563 0.858352,-1.189917 2.005123,-2.19494 3.441146,-2.599776 4.228044,-1.387619 8.654218,-2.032431 13.032454,-2.751161 1.140853,-0.165394 2.279817,-0.344596 3.421875,-0.5 -3.742104,-3.68286 -7.543602,-7.345892 -10.76751,-11.50296 -0.905817,-1.143957 -1.616365,-2.505961 -1.558561,-4.003764 -0.05351,-4.15686 0.659867,-8.277442 1.283316,-12.374058 0.146652,-0.854638 0.28634,-1.711087 0.437286,-2.56453 z"
     sodipodi:nodetypes="ccccccccccccccccccc" />
  <path
     id="path4-70-2"
     style="clip-rule:evenodd;fill:none;fill-opacity:1;fill-rule:evenodd;stroke:url(#linearGradient956-6-9);stroke-width:1;stroke-linecap:square;stroke-linejoin:miter;stroke-miterlimit:4.9;stroke-dasharray:none;stroke-opacity:1"
     d="m 73.429928,48.657107 c -0.270481,1.985175 -0.344468,4.036891 0.300781,5.96289 0.580733,2.120993 1.570183,4.159393 3.17523,5.696613 0.869082,0.97678 1.721205,1.89706 2.623598,2.85221 -2.339051,0.53201 -4.766748,0.80388 -6.998047,1.72071 -2.597618,1.23383 -4.989004,3.0851 -6.410523,5.62942 -0.665543,1.01312 -1.277204,2.06002 -1.89807,3.10105 -1.852077,-2.76789 -3.979874,-5.43863 -6.815256,-7.25681 -2.488913,-1.7062 -5.390998,-2.62927 -8.272635,-3.42483 2.250456,-3.06165 4.289248,-6.44204 4.856277,-10.262625 0.291933,-1.790374 0.295186,-3.60963 0.389817,-5.417066 3.527795,1.223462 7.259988,2.070645 11.014591,1.73212 2.8106,-0.165294 5.529619,-0.954967 8.184627,-1.845401 z"
     sodipodi:nodetypes="cccccccccccccc" />
</svg>
