<?xml version="1.0" encoding="UTF-8" standalone="no"?>
<svg
   xmlns:dc="http://purl.org/dc/elements/1.1/"
   xmlns:cc="http://creativecommons.org/ns#"
   xmlns:rdf="http://www.w3.org/1999/02/22-rdf-syntax-ns#"
   xmlns:svg="http://www.w3.org/2000/svg"
   xmlns="http://www.w3.org/2000/svg"
   xmlns:sodipodi="http://sodipodi.sourceforge.net/DTD/sodipodi-0.dtd"
   xmlns:inkscape="http://www.inkscape.org/namespaces/inkscape"
   height="128"
   width="128"
   version="1.1"
   id="svg67"
   sodipodi:docname="application-vnd.wolfram.mathematica.package.svg"
   inkscape:version="1.0.1 (3bc2e813f5, 2020-09-07)">
  <metadata
     id="metadata71">
    <rdf:RDF>
      <cc:Work
         rdf:about="">
        <dc:format>image/svg+xml</dc:format>
        <dc:type
           rdf:resource="http://purl.org/dc/dcmitype/StillImage" />
      </cc:Work>
    </rdf:RDF>
  </metadata>
  <sodipodi:namedview
     pagecolor="#ffffff"
     bordercolor="#666666"
     borderopacity="1"
     objecttolerance="10"
     gridtolerance="10"
     guidetolerance="10"
     inkscape:pageopacity="0"
     inkscape:pageshadow="2"
     inkscape:window-width="3840"
     inkscape:window-height="2097"
     id="namedview69"
     showgrid="false"
     inkscape:zoom="3.6964002"
     inkscape:cx="21.206335"
     inkscape:cy="49.658364"
     inkscape:window-x="3840"
     inkscape:window-y="30"
     inkscape:window-maximized="1"
     inkscape:current-layer="svg67" />
  <defs
     id="defs47">
    <linearGradient
       id="f"
       y2="42.586"
       gradientUnits="userSpaceOnUse"
       x2="24"
       gradientTransform="matrix(2.4595 0 0 3.1081 4.973 -78.595)"
       y1="5.5641"
       x1="24">
      <stop
         stop-color="#fff"
         offset="0"
         id="stop2" />
      <stop
         stop-color="#fff"
         stop-opacity=".23529"
         offset=".0097436"
         id="stop4" />
      <stop
         stop-color="#fff"
         stop-opacity=".15686"
         offset=".98165"
         id="stop6" />
      <stop
         stop-color="#fff"
         stop-opacity=".39216"
         offset="1"
         id="stop8" />
    </linearGradient>
    <radialGradient
       id="b"
       fx="7.2758"
       gradientUnits="userSpaceOnUse"
       cy="9.9571"
       cx="7.8061"
       gradientTransform="matrix(-4.2959e-7 17.553 -21.502 -5.2689e-7 278.07 -223.53)"
       r="12.672">
      <stop
         stop-color="#eca2a0"
         offset="0"
         id="stop11" />
      <stop
         stop-color="#dc5a57"
         offset=".26238"
         id="stop13" />
      <stop
         stop-color="#d02e2a"
         offset=".70495"
         id="stop15" />
      <stop
         stop-color="#9d2320"
         offset="1"
         id="stop17" />
    </radialGradient>
    <linearGradient
       id="d"
       y2=".91791"
       gradientUnits="userSpaceOnUse"
       x2="25"
       gradientTransform="matrix(2.6571 0 0 2.6587 .22872 -63.816)"
       y1="47.935"
       x1="25">
      <stop
         stop-color="#9d2320"
         offset="0"
         id="stop20" />
      <stop
         stop-color="#b52825"
         offset="1"
         id="stop22" />
    </linearGradient>
    <linearGradient
       id="e"
       y2="39.999"
       gradientUnits="userSpaceOnUse"
       x2="25.058"
       gradientTransform="matrix(3.1429 0 0 1.2857 -11.429 -2.4286)"
       y1="47.028"
       x1="25.058">
      <stop
         stop-color="#181818"
         stop-opacity="0"
         offset="0"
         id="stop25" />
      <stop
         stop-color="#181818"
         offset=".5"
         id="stop27" />
      <stop
         stop-color="#181818"
         stop-opacity="0"
         offset="1"
         id="stop29" />
    </linearGradient>
    <radialGradient
       id="c"
       gradientUnits="userSpaceOnUse"
       cy="43.5"
       cx="4.993"
       gradientTransform="matrix(2.4045 0 0 1.8 -32.014 -131.8)"
       r="2.5">
      <stop
         stop-color="#181818"
         offset="0"
         id="stop32" />
      <stop
         stop-color="#181818"
         stop-opacity="0"
         offset="1"
         id="stop34" />
    </radialGradient>
    <radialGradient
       id="a"
       gradientUnits="userSpaceOnUse"
       cy="43.5"
       cx="4.993"
       gradientTransform="matrix(2.4045 0 0 1.8 95.986 -24.8)"
       r="2.5">
      <stop
         stop-color="#181818"
         offset="0"
         id="stop37" />
      <stop
         stop-color="#181818"
         stop-opacity="0"
         offset="1"
         id="stop39" />
    </radialGradient>
    <linearGradient
       id="g"
       y2="15"
       gradientUnits="userSpaceOnUse"
       x2="21"
       gradientTransform="matrix(2.7143 0 0 2.7143 -4.7143 -70.718)"
       y1="29"
       x1="21">
      <stop
         stop-color="#f8dbd9"
         offset="0"
         id="stop42" />
      <stop
         stop-color="#fff"
         offset="1"
         id="stop44" />
    </linearGradient>
  </defs>
  <g
     transform="translate(0,64)"
     id="g65">
    <rect
       opacity=".4"
       height="9"
       width="6"
       y="49"
       x="108"
       fill="url(#a)"
       id="rect49" />
    <rect
       opacity=".4"
       transform="scale(-1)"
       height="9"
       width="6"
       y="-58"
       x="-20"
       fill="url(#c)"
       id="rect51" />
    <rect
       opacity=".4"
       height="9"
       width="88"
       y="49"
       x="20"
       fill="url(#e)"
       id="rect53" />
    <path
       stroke-linejoin="round"
       style="color:#000000"
       d="m17.5-62.493h93v116.99h-93v-117z"
       stroke="url(#d)"
       fill="url(#b)"
       id="path55" />
    <path
       opacity=".5"
       stroke-linejoin="round"
       d="m109.5 53.5h-91v-115h91z"
       stroke="url(#f)"
       stroke-linecap="round"
       fill="none"
       id="path57" />
  </g>
  <path
     inkscape:connector-curvature="0"
     d="m 63.999978,34.168832 c -0.917632,0.002 -1.835263,0.05076 -2.748989,0.144478 -0.868818,0.08785 -1.725927,0.218669 -2.567412,0.384624 -0.03906,0.0058 -0.07614,0.01173 -0.113241,0.01565 -0.792676,0.162049 -1.565831,0.370954 -2.333124,0.599387 -0.107382,0.02732 -0.216716,0.05662 -0.326052,0.08395 -0.862965,0.269433 -1.71031,0.574008 -2.534224,0.925441 -0.816107,0.343624 -1.61464,0.730203 -2.391697,1.15192 -1.544355,0.839534 -3.002803,1.827452 -4.35777,2.948132 -0.675534,0.556437 -1.323733,1.146063 -1.942644,1.766926 -0.589627,0.591579 -1.153872,1.208544 -1.686881,1.850881 -0.03124,0.03906 -0.06442,0.0742 -0.09567,0.113241 -0.431481,0.533008 -0.843438,1.083587 -1.233922,1.649785 -0.138618,0.195239 -0.283099,0.386575 -0.415861,0.587674 -0.296766,0.452957 -0.579865,0.915678 -0.8493,1.388162 -0.189381,0.324096 -0.38462,0.644292 -0.560341,0.976202 -0.218667,0.42367 -0.427573,0.851247 -0.624764,1.286635 -0.183527,0.392432 -0.363149,0.786817 -0.529105,1.190968 -0.16205,0.411957 -0.316288,0.827821 -0.458814,1.247586 -0.154241,0.443197 -0.310434,0.884442 -0.443199,1.335446 -0.111282,0.396339 -0.214764,0.794628 -0.30848,1.196822 -0.117145,0.474437 -0.234287,0.950825 -0.326049,1.435019 -0.082,0.458817 -0.150337,0.919585 -0.208909,1.382306 -0.05857,0.429529 -0.117144,0.857106 -0.154239,1.292493 -0.07614,0.790724 -0.117145,1.585354 -0.123003,2.381934 0.002,0.917634 0.05076,1.83526 0.144477,2.748989 0.470529,4.670154 2.124221,8.996686 4.654537,12.678924 0.02345,0.03319 0.04686,0.06834 0.07029,0.10153 0.195239,0.281147 0.396337,0.558388 0.603292,0.831727 0,-0.0078 0.0039,-0.01758 0.0059,-0.0254 4.99035,6.657705 12.91907,10.997905 21.855234,10.997905 5.132874,0 9.92603,-1.450638 14.035846,-3.92434 l 0.0039,0.0058 c 0.05662,-0.03709 0.111282,-0.07614 0.165954,-0.113238 0.652103,-0.398292 1.286635,-0.820012 1.901642,-1.271017 0.140576,-0.10348 0.281147,-0.208909 0.421724,-0.314337 0.538864,-0.411959 1.062107,-0.841487 1.569732,-1.292495 0.205003,-0.183527 0.408055,-0.370957 0.607199,-0.560339 0.423672,-0.398292 0.831725,-0.808294 1.228064,-1.231969 0.23624,-0.251859 0.468574,-0.505673 0.695056,-0.763389 0.372911,-0.429528 0.726296,-0.872726 1.071871,-1.325683 0.189383,-0.244053 0.374863,-0.490055 0.556437,-0.741915 0.363149,-0.509577 0.700913,-1.034778 1.028917,-1.569736 0.136668,-0.216715 0.271383,-0.435388 0.400244,-0.656007 0.326051,-0.564247 0.622817,-1.146061 0.907866,-1.735689 0.11324,-0.224528 0.220623,-0.449053 0.326054,-0.677484 0.255764,-0.566198 0.482243,-1.148017 0.69896,-1.73569 0.107381,-0.277243 0.20891,-0.556438 0.304573,-0.837582 0.189385,-0.566198 0.351438,-1.14216 0.501771,-1.723974 0.08005,-0.292862 0.154239,-0.585725 0.224525,-0.880533 0.123004,-0.550581 0.220625,-1.108971 0.310434,-1.671265 0.06247,-0.369001 0.117145,-0.739958 0.164002,-1.110917 0.05662,-0.480293 0.08785,-0.968391 0.119097,-1.456495 0.04881,-0.581815 0.0781,-1.163632 0.08982,-1.74545 0,-0.92349 -0.04881,-1.831357 -0.138624,-2.729465 l -0.0058,-0.02147 c -0.08785,-0.868822 -0.216717,-1.723971 -0.384623,-2.567415 -0.0078,-0.03709 -0.0078,-0.07614 -0.01563,-0.111282 -0.160098,-0.792677 -0.370959,-1.567782 -0.597438,-2.333126 -0.03123,-0.103481 -0.04881,-0.21281 -0.08005,-0.31629 l -0.01173,-0.03709 c -0.265526,-0.855154 -0.572054,-1.690785 -0.917627,-2.508845 -0.345579,-0.816101 -0.730203,-1.612685 -1.153871,-2.391694 -0.839538,-1.542403 -1.825503,-3.0028 -2.946186,-4.355817 -0.558385,-0.675535 -1.148014,-1.323731 -1.766925,-1.942645 -0.591578,-0.591579 -1.210492,-1.153869 -1.852834,-1.688833 -0.03124,-0.02537 -0.06052,-0.05271 -0.09177,-0.08005 -0.0058,-0.0039 -0.01368,-0.0097 -0.01952,-0.01559 -0.534961,-0.431482 -1.085538,-0.843438 -1.649781,-1.231966 -0.197194,-0.138621 -0.388532,-0.283099 -0.587679,-0.417814 -0.454959,-0.296719 -0.917679,-0.579822 -1.388211,-0.8473 -0.324096,-0.191332 -0.644295,-0.384621 -0.976202,-0.562291 -0.423676,-0.21867 -0.853205,-0.42758 -1.286637,-0.62477 -0.394385,-0.181574 -0.788771,-0.363149 -1.190966,-0.527147 -0.41196,-0.164005 -0.829773,-0.316295 -1.249538,-0.458817 -0.441248,-0.156196 -0.882492,-0.310434 -1.333497,-0.443196 -0.396338,-0.113241 -0.79658,-0.216717 -1.196825,-0.310435 -0.476386,-0.117146 -0.950822,-0.234288 -1.436971,-0.326051 -0.458814,-0.08005 -0.919582,-0.150338 -1.382303,-0.206955 -0.429529,-0.05857 -0.857106,-0.117146 -1.290538,-0.156194 -0.792677,-0.07419 -1.587306,-0.115191 -2.381934,-0.123001 z m -4.152768,3.945814 3.691999,8.670636 6.317988,-5.365212 v 14.990571 l 14.643045,11.925299 -4.500297,2.993037 -12.509065,-0.126906 7.005233,9.498454 c -3.114088,1.700546 -6.68699,2.668942 -10.496135,2.668942 -9.111881,0 -16.88636,-5.525314 -20.18007,-13.420842 1.723977,-6.659659 4.299198,-13.090884 7.987296,-16.677454 1.573637,-5.788882 4.642822,-10.582038 8.040006,-15.156525 z m 4.348007,20.654504 0.002,2.329221 5.269544,0.404145 c -0.67748,-1.638071 -2.151545,-2.391698 -5.27149,-2.733366 z"
     style="clip-rule:evenodd;fill:#ffffff;fill-opacity:1;fill-rule:nonzero;stroke-width:1.9524;stroke-linejoin:round;stroke-miterlimit:2"
     id="path4-3" />
</svg>
